<?xml version="1.0" encoding="UTF-8"?>
<svg version="1.1" xmlns="http://www.w3.org/2000/svg" width="256" height="256">
<path d="M0 0 C0.95142883 -0.00807175 1.90285767 -0.01614349 2.88311768 -0.02445984 C4.90041297 -0.03827453 6.91773138 -0.04900835 8.93505859 -0.05688477 C10.96735646 -0.06832027 12.99962634 -0.08863548 15.03173828 -0.1184082 C31.89245137 -0.36502265 46.70101684 1.39600213 62.390625 7.92578125 C63.22190918 8.26609375 64.05319336 8.60640625 64.90966797 8.95703125 C76.8434347 13.99720917 87.48939525 20.72195713 97.265625 29.23828125 C98.16925781 30.00914063 99.07289063 30.78 100.00390625 31.57421875 C121.43995132 50.37152522 139.10593107 79.76242757 141.4669342 108.70614624 C141.55897758 111.21998356 141.59503352 113.72668515 141.6015625 116.2421875 C141.6082193 117.16434555 141.6148761 118.0865036 141.62173462 119.03660583 C141.63179097 120.97693919 141.63655384 122.91730663 141.63623047 124.85766602 C141.64057852 127.76964951 141.6769045 130.68008291 141.71484375 133.59179688 C141.87510165 160.30329438 133.18310704 186.34194891 116.265625 207.23828125 C115.83797852 207.77662598 115.41033203 208.3149707 114.96972656 208.86962891 C104.2976387 222.22668453 92.29833358 232.95035195 77.265625 241.23828125 C76.67088379 241.57311523 76.07614258 241.90794922 75.46337891 242.25292969 C56.63525592 252.74858579 37.96693697 256.46155042 16.63061523 256.58837891 C14.61877761 256.60479156 12.60699461 256.63188193 10.59545898 256.67041016 C-20.43012113 257.25961695 -48.39384697 246.75507005 -71.734375 226.23828125 C-72.58644531 225.51898438 -73.43851563 224.7996875 -74.31640625 224.05859375 C-95.2843458 205.95723887 -111.04644576 177.84303953 -114.734375 150.23828125 C-114.90508465 147.03424948 -114.94566961 143.83313512 -114.97265625 140.625 C-114.98476387 139.23327324 -114.98476387 139.23327324 -114.99711609 137.81343079 C-115.01091348 135.84919068 -115.02165496 133.88492703 -115.02954102 131.9206543 C-115.04098344 129.94369302 -115.06131015 127.96676071 -115.09106445 125.98999023 C-115.62307323 90.56533878 -102.25534339 61.51525355 -78.28515625 35.79296875 C-58.28262651 15.75980727 -28.60706644 0.23345368 0 0 Z " fill="#FE0000" transform="translate(114.734375,-0.23828125)"/>
<path d="M0 0 C0.95261719 0.35191406 1.90523438 0.70382813 2.88671875 1.06640625 C9.91539316 3.73853717 15.40113874 6.99989126 21 12 C21.67675781 12.57234375 22.35351562 13.1446875 23.05078125 13.734375 C33.30251356 23.05051232 40.02595325 37.10733773 41.375 50.80859375 C42.1698295 67.73305234 37.17212019 84.62828894 25.75 97.3125 C21.01770861 102.33985419 15.92254737 106.45642544 10 110 C9.34644531 110.39703125 8.69289063 110.7940625 8.01953125 111.203125 C-4.57663216 118.16347921 -19.9443625 118.62148267 -33.83203125 115.94140625 C-45.19289651 112.56536614 -54.82891561 106.56317097 -63 98 C-63.55816406 97.46117187 -64.11632812 96.92234375 -64.69140625 96.3671875 C-74.61177655 86.05829095 -78.98928542 70.94743933 -79.375 57 C-78.90863096 40.13609542 -72.6995483 25.50221793 -60.8203125 13.625 C-45.36086618 -0.76384754 -20.26497167 -9.09185215 0 0 Z " fill="#FDFAF9" transform="translate(147,71)"/>
<path d="M0 0 C4.61763308 1.53921103 8.8043827 3.24151761 13.13671875 5.37890625 C14.14700638 5.87154213 14.14700638 5.87154213 15.17770386 6.37413025 C17.34923613 7.43367957 19.518328 8.49812833 21.6875 9.5625 C24.65807158 11.01332464 27.62987021 12.46162884 30.6015625 13.91015625 C31.32873978 14.26506134 32.05591705 14.61996643 32.80513 14.98562622 C38.7055697 17.86343457 44.62518157 20.69900005 50.5625 23.5 C51.34004639 23.86681885 52.11759277 24.2336377 52.91870117 24.61157227 C54.61182853 25.40907272 56.30578941 26.20480337 58 27 C58 27.66 58 28.32 58 29 C57.21411499 29.37415039 57.21411499 29.37415039 56.41235352 29.75585938 C53.79518059 31.00274514 51.17877038 32.25122154 48.5625 33.5 C47.56581299 33.97542236 46.56912598 34.45084473 45.54223633 34.94067383 C39.07930286 38.03007397 32.63198317 41.14930422 26.1953125 44.29296875 C24.68938957 45.02738031 23.18344884 45.76175535 21.67749023 46.49609375 C19.43219204 47.59107294 17.18762466 48.68743882 14.94509888 49.78808594 C12.83354358 50.82438894 10.71973795 51.85596671 8.60546875 52.88671875 C7.9668692 53.20182907 7.32826965 53.51693939 6.6703186 53.84159851 C2.22729733 56 2.22729733 56 0 56 C0 37.52 0 19.04 0 0 Z " fill="#FE0404" transform="translate(103,100)"/>
</svg>
